<?xml version="1.0" encoding="UTF-8"?><svg xmlns="http://www.w3.org/2000/svg" viewBox="0 0 767.41 299.39"><defs><style>.d{fill:#231f20;}</style></defs><g id="a"/><g id="b"><g id="c"><path class="d" d="M705.07,72.09c17.38-6.04,38.35-9.28,62.34-9.93v-.25c-23.9-.9-44.58-4.36-61.44-10.58-16.88-6.22-25.91-13.73-27.75-22.32l-.1-.48-.14,.47c-2.55,8.57-12.2,15.97-29.56,22.01-11.48,3.99-24.54,6.75-39,8.36-7.72-1.67-14.72-4.12-20.93-7.38-11.08-5.82-17.01-12.82-18.22-20.88l-.1-.69-.14,.68c-1.68,8.03-8.01,14.94-19.42,20.58-5.96,2.95-12.58,5.18-19.78,6.73-2.59-.73-5.04-1.57-7.34-2.54-8.11-3.42-12.43-7.54-13.31-12.25l-.1-.55-.14,.54c-1.22,4.69-5.84,8.76-14.18,12.08-3.61,1.44-7.54,2.58-11.77,3.45-6.13-2.22-11.66-5.62-16.53-10.28-8.1-7.74-12.45-17.08-13.34-27.85h-.25c-1.24,10.73-5.88,19.93-14.22,27.45-8.34,7.51-18.39,11.54-29.92,12.35v.25c11.5,1.13,21.41,5.44,29.5,13.17,8.1,7.74,12.44,17.07,13.33,27.84h.25c1.23-10.72,5.88-19.93,14.22-27.45,5.59-5.03,11.94-8.49,18.99-10.48,3.33,.84,6.45,1.86,9.32,3.07,8.1,3.42,12.42,7.54,13.3,12.24l.1,.55,.14-.54c1.22-4.69,5.84-8.75,14.18-12.08,2.89-1.15,6-2.11,9.3-2.9,6.45,1.63,12.36,3.82,17.68,6.62,4.32,2.27,7.85,4.72,10.63,7.34-4.32,6.53-10.96,12.49-20.03,17.85-13.37-7.45-29.3-10.57-45.62-7.65-30.71,5.49-52.84,30.13-56.51,59.14-4.9,3.59-11.01,6.94-18.41,10.01-2.63,1.09-5.34,2.11-8.12,3.06v-41.72c7.28-2.21,15.63-3.45,24.95-3.74v-.25c-9.42-.41-17.77-1.78-24.95-4.14v-11.05q-5.96-.89-8.71,3.64c-.56,.92-1.11,1.84-1.67,2.76-4.4-2.76-6.87-5.86-7.5-9.28l-.1-.55-.14,.54c-1.22,4.69-5.84,8.76-14.18,12.08-8.34,3.32-18.41,5.1-29.95,5.46v.25c11.51,.5,21.44,2.41,29.53,5.82,4.41,1.86,7.69,3.93,9.91,6.19-8.78,14.48-17.57,28.94-26.4,43.38-3.7,.27-7.47,.48-11.32,.6v.25c3.53,.16,6.99,.39,10.4,.67l.09,.25c-3.08,3.56-3.28,6.72-2.8,10.77h41.08c0,5.63,.01,10.93,0,16.22-.01,4.73-1.15,5.99-5.92,6.43-.63,.06-1.27,.1-1.91,.14-1.24-.34-2.49-.69-3.72-1.07-13.96-4.25-27.05-9.89-37.97-19.03-.3-.25-.52-.4-.77-.4-.27,0-.49,.16-.83,.42-2.14,1.63-4.2,3.34-6.44,4.84-2.93,1.96-5.97,3.72-9.1,5.34,5.9-12.07,4.03-27.57-7.01-36.39-.37-.29-.75-.57-1.13-.85,3.83-2.63,7.92-4.91,12.23-6.92,7.82-3.65,16.06-6.33,24.53-8.47,.47-.12,.94-.26,1.64-.45l.41-.12-.41-.12c-.56-.17-.87-.27-1.19-.36-1.8-.48-3.61-.94-5.4-1.45-8.24-2.33-16.2-5.25-23.68-9.17h0c.64-3.55,.54-7.35-.29-11.38-2.16-10.42-9-16.52-19.12-19.14-8.65-2.24-17.29-1.94-25.78,.82-5.42,1.76-10.14,4.7-13.6,9.34-2.68,3.59-4.31,7.57-3.57,12.16,.74,4.6,4.23,7.61,8.3,7.32,3.53-.26,6.56-3.92,6.68-8.32,.05-1.88-.26-3.76-.44-5.64-.52-5.5,1.32-8.72,6.7-9.79,4.49-.89,9.21-1.2,13.79-.97,4.79,.25,8.84,2.61,11.71,6.65,2.57,3.61,3.92,7.63,4.24,11.64-.36-.28-.73-.54-1.08-.83-.4-.33-.64-.51-.93-.52-.3,0-.53,.2-.93,.53-.54,.44-1.08,.88-1.63,1.3-7.54,5.74-16.17,9.8-25.3,13.09-.18,.07-.35,.09-.5,.1-.23,0-.45-.06-.7-.18-1.92-.87-3.86-1.7-5.76-2.6-10.9-5.14-20.93-11.37-29.79-19.07-.28-.25-.63-.42-.99-.64,.88-.9,1.58-1.62,2.29-2.32,6.23-6.11,13.32-11.29,20.97-15.9,11.2-6.74,23.22-12.08,35.74-16.51,22.57-7.99,45.99-12.94,69.97-15.96,1.01-.13,2.01-.32,3.17-.51l.25-.04-.18-.17c-.71-.68-1.36-1.02-2.19-1.14-6.55-.95-13.12-1.82-19.64-2.91-13.78-2.31-27.31-5.49-40.57-9.58-13.64-4.21-26.82-9.34-39.24-15.95-9.38-4.99-18.13-10.73-25.81-17.71-4.85-4.4-9.12-9.21-12.55-14.59l-1.39-1.99-1.45,2c-1.77,2.38-3.41,4.84-5.32,7.12-5.74,6.85-12.75,12.56-20.4,17.65-9.22,6.14-19.17,11.17-29.58,15.48-17.32,7.17-35.41,12.23-53.99,15.95-.32,.06-.62,.1-.91,.1-.35,0-.69-.05-1.05-.16-4.05-1.29-8.15-2.45-12.14-3.87-7.27-2.59-14.1-5.9-20.27-10.25-4.7-3.32-8.79-7.13-11.66-11.92-.04-.07-.08-.15-.11-.23l-.72-1.8-.67,1.94c-.18,.49-.27,.83-.49,1.23-.91,1.66-2.26,3.04-3.55,4.44-3.99,4.31-8.9,7.67-14.21,10.58h-.03c-22.54-.09-45.08-.01-67.62-.01l-.43,7.91c4.15,.43,8.38,.44,12.44,1.3,3.75,.79,6.19,2.45,7.59,5.07-.56,.07-1.11,.16-1.67,.23-.75,.09-1.43,.32-2.1,.93l-.16,.15,.21,.06c.66,.19,1.18,.41,1.74,.5,.95,.16,1.91,.27,2.87,.39,.31,1.11,.5,2.33,.57,3.69,.06,1.23,.06,2.46,.06,3.69,0,37.93,0,75.85,0,113.78,0,.85,0,1.7,0,2.55-.2,9.52-3.33,13.2-12.73,14.5-3.14,.43-6.4,.08-9.58,.24l.31,8.48c22.19,0,44.39,.05,66.58-.06,.81,.36,1.62,.74,2.41,1.15,3.83,2.01,7.11,4.52,9.17,8.12,.2,.34,.57,.55,.88,.84l.1,.09,.08-.11c.25-.34,.45-.55,.6-.81,1.47-2.63,3.66-4.69,6.28-6.43,4.18-2.78,8.91-4.5,13.92-5.68,.11-.03,.22-.04,.35-.04,.2,0,.41,.03,.61,.07,2.05,.43,4.12,.84,6.14,1.34,7.54,1.87,14.76,4.42,21.43,8.11,7.19,3.98,13.39,8.84,17.21,15.77,.2,.35,.57,.56,.95,.93l.11,.1,.08-.12c.16-.23,.24-.35,.32-.47,.12-.17,.25-.35,.35-.54,2.58-4.72,6.4-8.52,10.94-11.78,6.57-4.72,14.02-7.97,21.94-10.43,.19-.06,.37-.09,.54-.09,.27,0,.53,.06,.82,.15,11.57,3.64,22.79,7.99,33.5,13.36,10.16,5.1,19.66,11,28.13,18.19,.32,.27,.6,.6,.9,.91l.04,.04h.43l-.02-.15v-.09c0-.17,.08-.28,.22-.4,.14-.11,.33-.21,.49-.35,7.65-6.44,16.11-11.9,25.15-16.64,9.31-4.89,19.03-8.93,29.03-12.4,5.44-.02,10.85-1.04,16.17-3.12,3.22,1.16,6.45,2.28,9.59,3.58,8.62,3.57,16.6,8.03,23.52,13.92,.17,.15,.36,.27,.56,.41l.07,.05,.07-.05c.17-.12,.33-.22,.47-.34,6.3-5.34,13.48-9.52,21.21-12.98,4.6-2.06,9.33-3.81,14.14-5.35v1.1h40.19v-5.61c-3.58-.34-6.97-.57-10.33-1.03-2.04-.28-3.59-1.48-3.62-3.73-.07-6.03-.02-12.06-.02-18.52l.41-.29c2.28,.86,4.51,1.75,6.68,2.71,18.58,8.19,28.52,18.05,30.55,29.38l.1,.57,.14-.57c.98-3.95,2.95-7.7,5.87-11.25,8.74,9.62,19.99,16.6,32.18,19.98,3.77,1.04,7.64,1.7,11.49,2.48l13.72,.26c1.4-.24,2.8-.5,4.2-.72,24.13-3.89,43.24-19.15,52.57-39.63,2.86-2.05,6.53-3.95,11.07-5.68,5.24-2,11.02-3.54,17.28-4.66,3.14,.77,6.08,1.7,8.8,2.8,4.99,2.02,8.51,4.3,10.65,6.81-1.54,8.28-3.76,15.81-6.67,22.57-.61-.08-1.21-.16-1.8-.26-6.56-1.07-9.31-4.83-9.42-11.5-.04-2.55,.36-5.1,.3-7.65-.11-4.57-3.28-7.96-7.42-8.22-4.5-.28-7.8,2.53-8.49,7.34-.17,1.21-.24,2.46-.14,3.67,.83,9.54,6.15,16.03,14.65,19.63,3.13,1.33,6.29,2.32,9.45,2.98-3.47,6.44-7.33,11-11.52,13.76-5.35-1.28-10.36-2.82-15-4.65-13.56-5.33-20.81-11.76-22.29-19.12l-.1-.51-.14,.5c-2.05,7.34-9.79,13.68-23.74,18.85-13.95,5.17-30.79,7.95-50.08,8.51v.25c19.25,.78,35.84,3.75,49.38,9.07,13.55,5.33,20.79,11.76,22.27,19.11l.1,.51,.14-.5c2.05-7.33,9.79-13.67,23.74-18.85,5.42-2.01,11.29-3.65,17.55-4.95,4.22,3.74,8.03,9.41,11.4,17.13,5.68,13.03,8.74,28.75,9.36,46.88h.25c.87-18.06,4.13-33.58,9.98-46.22,5.86-12.66,12.91-19.4,20.94-20.75l.61-.1-.61-.14c-7.55-1.77-14.17-8.29-19.67-19.96,2.1-.67,4.19-1.49,6.26-2.49,10.86-5.24,16.03-14.21,16.96-25.08,1.97,1.65,3.87,3.43,5.68,5.4,9.8,10.62,15.07,23.43,16.15,38.21h.25c1.5-14.72,7.12-27.36,17.22-37.67,2.51-2.56,5.14-4.82,7.9-6.8-1.19,4.08-2.12,8.25-2.71,12.52-.54,3.88-.6,7.92-.16,11.8,.4,3.58,3.39,5.75,6.67,5.89,3.07,.13,5.63-1.57,6.7-5.06,.73-2.4,1.22-5.02,1.08-7.5-.47-8.53,.48-16.79,2.43-24.86,4.54-1.56,9.32-2.53,14.33-2.93v-.25c-4.43-.49-8.66-1.43-12.7-2.82,.97-3.2,2.08-6.37,3.32-9.52,6.8-17.33,16.26-33.25,26.08-48.96,2.04-3.26,2.17-6.44,1.8-9.99-.45-.08-.81-.2-1.18-.2-18.59-.01-37.18,0-55.77-.05-6.12-4.28-10.11-9.05-12.06-14.27,4.66-5.85,13.26-11.04,26.05-15.48ZM233.68,112.85c-.71,1.29-1.22,2.22-1.74,3.13-.63,1.09-1.27,2.17-1.9,3.26-11.11,8.76-23.71,15.46-37.36,20.72-.23,.09-.43,.12-.64,.13-.19,0-.39-.03-.6-.09-3.9-1.07-7.64-2.47-11.1-4.41-1.21-.67-2.35-1.4-3.44-2.18,.41-1.08,.73-2.06,1.21-2.93,2.42-4.36,4.65-8.84,7.45-12.95,2.08-3.06,5.4-4.82,9.25-4.84,12.7-.07,25.4-.03,38.69-.03,.06,.06,.13,.12,.19,.19Zm-101.19-43.74c.44-.12,.86-.18,1.28-.18,.3,0,.6,.03,.91,.1,2.5,.55,5.01,1.05,7.5,1.6,13.87,3.08,27.45,6.98,40.6,12.02,11.32,4.34,22.18,9.44,32.29,15.78,1.86,1.17,3.68,2.37,5.47,3.61h-41.22c-2.18,9.17-4.37,18.33-6.58,27.6-.89-1.05-1.68-2.18-2.32-3.44l-.03-.07h-1.27l-.03,.07c-.26,.57-.38,1.08-.68,1.44-1.03,1.29-2.02,2.61-3.21,3.75-2.86,2.74-6.38,4.68-10.15,6.26-1.58,.66-3.19,1.24-4.82,1.75,.89-10.31,.08-20.85-2.18-31.52-3.09-14.58-9.27-27.38-19.33-37.7,1.26-.37,2.52-.74,3.79-1.08Zm-43.64,131.93c-.96-.53-1.9-1.09-2.81-1.71-2.61-1.79-4.78-3.92-6.13-6.65l-.03-.07h-1.35l-.03,.08c-.2,.51-.3,.94-.52,1.29-1,1.59-2.32,2.96-3.83,4.19-2.32,1.88-4.95,3.33-7.77,4.52-.64,.27-1.28,.52-1.92,.75-4.02,0-8.03-.06-12.04-.21-9.02-.34-12.83-4.13-13.41-13.12-.26-4.05-.12-8.13-.12-12.19,0-16.17,0-32.34,0-48.51,0-19.2,0-38.39,0-57.59,0-1.37,.07-2.63,.19-3.8,3.05,.73,6.08,1.54,9.08,2.45,7.91,2.41,15.51,5.42,22.52,9.52,6.59,3.86,12.42,8.41,16.39,14.62,.22,.34,.58,.55,.94,.88l.1,.09,.08-.11c.35-.44,.64-.76,.87-1.12,1.31-2.03,2.86-3.9,4.6-5.65,3.9-3.9,8.48-7.05,13.45-9.76,2.39-1.31,4.85-2.49,7.34-3.58,1.48,1.74,2.9,3.56,4.24,5.48,18.95,27.22,18.86,71.27-.26,98.39-7.78,11.03-17.64,18.36-29.58,21.81Zm105.18-2.83c-3.99,1.47-8.02,2.84-12.11,4.12-.2,.06-.39,.09-.57,.09-.22,0-.44-.04-.68-.13-1.65-.57-3.32-1.08-4.95-1.68-6.67-2.47-12.91-5.58-18.38-9.84-4.09-3.19-7.52-6.84-9.76-11.32l-.03-.07h-1.35l-.03,.08c-.2,.52-.3,.96-.53,1.3-.98,1.44-1.91,2.92-3.02,4.26-3.33,4.02-7.54,7.2-12.21,9.91-5.99,3.47-12.39,6.01-19.06,7.92,11.55-5.94,21-15.01,27.95-27.59,5.34-9.67,8.65-19.66,10.21-29.88,4.19,1.23,8.18,2.89,11.81,5.22,3.15,2.02,5.83,4.43,7.6,7.56,.21,.37,.59,.63,.94,1l.1,.11,.09-.12c.28-.39,.5-.63,.66-.92,1.5-2.68,3.69-4.85,6.29-6.71,4.22-3.01,9.04-4.98,14.16-6.44,.29-.08,.56-.12,.82-.12,.36,0,.7,.07,1.08,.22,5.1,1.99,10.1,4.18,14.95,6.64,.84,.43,1.67,.88,2.51,1.32-.13,.23-.26,.46-.38,.68-7.23,13.11-13.49,26.69-15.77,41.66-.14,.9-.24,1.82-.32,2.74Zm44.68-23.44c-2.7,1.89-5.33,3.85-8.1,5.63-7.06,4.53-14.46,8.46-22.12,11.92,.71-11.8,3.97-23.1,8.54-34.14,.15-.36,.31-.71,.47-1.07,7.02,4.25,13.56,9.07,19.48,14.6,.84,.79,1.66,1.6,2.53,2.44-.29,.23-.54,.45-.79,.62Zm76.35,28.56c-.48,.16-.95,.32-1.43,.48-.17,.06-.33,.08-.49,.08-.25,0-.5-.06-.77-.14-10.25-3.03-20.26-6.57-29.92-10.84,.1-1.58,.23-3.15,.21-4.73-.07-4.7-3.28-8.19-7.55-8.4-3.86-.19-6.77,1.88-7.95,5.54-5.41-3.03-10.61-6.35-15.55-10.02-.49-.36-.97-.75-1.5-1.16,.29-.3,.54-.56,.79-.8,11.38-11.12,24.99-19.44,40.1-25.91,.27-.12,.51-.17,.75-.17,.22,0,.44,.05,.68,.14,1.5,.6,3,1.17,4.5,1.75-1.8,0-3.6-.05-5.39,0-2.71,.07-4.08,1.21-4.15,3.58-.06,2.48,1.41,3.97,4.07,4.05,.66,.02,1.32-.1,1.98-.1,3.29,0,6.62-.32,9.86,.08,12.01,1.49,19.3,8.32,20.77,19.45,.75,5.69,.05,11.32-1.9,16.76-1.56,4.36-3.94,7.87-7.13,10.38Zm77.58-69.82l.07-.27c1.23-2.03,2.47-4.07,3.7-6.1,1.01-.97,2.21-1.89,3.61-2.78v40.1c-9.14,2.35-18.93,4.06-29.37,5.15,7.39-12.19,14.69-24.22,21.96-36.21l.02,.12Zm167.49,23.71c-2.14,2.13-5.08,4.12-8.82,5.95,0-6.02,0-12.03-.02-18.05,3.88,3.82,6.82,7.85,8.83,12.1Zm-19.16-13.87c.01,7.95,0,15.9,0,23.84-3.91,1.21-8.05,2.21-12.45,2.99-5.69-.76-11.15-1.73-16.42-2.87-.01-8.28,0-16.56,.04-24.84,0-.84,.33-1.93,.91-2.48,3.87-3.7,8.16-6.76,13.52-8,1.9-.44,3.65-.54,5.24-.37,.34,.17,.68,.34,1.01,.51,2.11,1.11,4.1,2.25,5.99,3.41,1.38,1.97,2.16,4.6,2.16,7.81Zm-88.05-14.49l-.1-.58-.14,.57c-1.51,6.06-5.29,11.66-11.4,16.78,5.31-31.66,32.98-55.77,66.07-55.54,11.11,.08,21.57,2.85,30.76,7.68-1.39,.77-2.84,1.53-4.34,2.27-18.94,9.37-41.78,14.4-67.97,15.42v.25c20.99,1.13,39.66,4.83,55.72,11.25-.7,.37-1.39,.77-2.07,1.19-2.7,1.69-5.22,3.66-7.91,5.57-.21-.32-.44-.61-.61-.93-3.63-6.71-9.33-9.62-16.87-9.2-5.67,.32-10.64,2.5-15.21,5.71-1.75,1.23-3.41,2.58-5.55,4.2v-10.47c-6.88,2.1-13.35,4.08-20.01,6.11,.34,1.5,.62,2.76,.92,4.1,.58,.07,1.03,.14,1.5,.17,6.31,.36,7.15,1.23,7.16,7.51,0,1.53,0,3.06,0,4.59-5.57-5.13-8.87-10.69-9.94-16.66Zm48.88,35.88c-6.48-1.83-12.6-3.98-18.3-6.49-3.76-1.65-7.14-3.38-10.2-5.17,0-3.17,0-6.35,.02-9.52,0-.98,.1-2.24,.69-2.88,4.56-4.92,9.85-8.56,16.88-8.85,5.85-.24,10.71,3.41,10.8,8.91,.14,8,.15,16,.11,24.01Zm4.99,58.81c-19.63-.1-37.22-8.65-49.37-22.2,3.84-4.09,9.03-7.91,15.64-11.43h9.2v-4.33c.08-.03,.16-.07,.24-.11,6.01-2.5,12.43-4.61,19.2-6.39-.05,3.24-1.77,4.75-5.19,5.26-1.18,.18-2.37,.23-3.48,.33v5.21h27.69v-5.29c-.91-.06-1.66-.1-2.41-.16-4.35-.38-6.19-2.22-6.21-6.51,0-.41,0-.83,0-1.24,4.54-.91,9.2-1.69,14.03-2.31,5.3,.9,10.23,2.11,14.77,3.62-.29,5.14-1.9,6.12-8.2,6.55-.16,.01-.31,.17-.56,.31v5.08h28.27c.93,1.34,1.57,2.74,1.94,4.17-12.07,17.85-32.48,29.54-55.57,29.43Zm100.73-56.36c-3.28,1.25-6.84,2.27-10.65,3.06-5.54-1.15-10.65-2.65-15.29-4.53-2.11-.85-4-1.75-5.71-2.67,.36-4.04,.4-8.17,.05-12.36-.13-1.5-.32-2.98-.54-4.45,5.14-4.93,11.84-9.48,20.19-13.62,12.31-6.09,26.27-10.35,41.72-12.86,.57,.15,1.14,.31,1.71,.47,2.76,11.44-3.52,24.6-15.55,27.83-4.53,1.22-9.5,.84-14.27,1.06-2.84,.13-4.3,1.29-4.26,3.76s1.52,3.85,4.24,3.89c.57,0,1.13-.1,1.7-.1,3.29-.01,6.61-.33,9.86,.06,.13,.02,.25,.04,.38,.06-1.55,4.01-5.98,7.51-13.58,10.4Zm16.36-61.34c4.25,.16,7.98,2.24,10.78,5.64,.33,.41,.64,.82,.94,1.25-.75,.17-1.5,.33-2.26,.49-8.1-1.65-15.73-3.82-22.87-6.5,4.39-.79,8.95-1.04,13.4-.88Zm15.48,62.57c-.29,.1-.57,.22-.85,.32-1.32-.43-2.59-.89-3.82-1.39-7.31-2.96-11.47-6.47-12.75-10.44,8.2,1.26,14.45,5.31,17.43,11.51Zm-16.71,16.96c2.29-2.68,6.12-5.09,11.61-7.19,1.94-.74,3.97-1.39,6.1-1.97,.35,.15,.69,.32,1.04,.48,.32,3.63,.15,7.38-.35,10.95-1.23,8.86-5.83,15.28-12.92,18.25-2.38-6.28-4.2-13.13-5.48-20.52Zm37.56-30.59c-3.53,3.61-7.33,6.61-11.36,9.06-3.52-4.49-8.62-7.79-14.79-10.12-.67-.25-1.34-.54-2.16-.87,2.97-1.79,5.94-3.24,8.53-5.19,8.02-6.01,11.57-13.81,10.94-23.02,1.5,.67,2.96,1.38,4.38,2.12,7.05,3.71,12.19,7.86,15.52,12.41-2.78,5.67-6.45,10.89-11.07,15.6Zm-3.82-49.23c-3.23,1.6-6.64,3-10.22,4.22-3.63-4.66-8.96-7.61-15.52-9.15-7.6-1.78-15.25-1.6-22.79,.48-2.02,.56-3.95,1.27-5.78,2.13-1.88-.86-3.73-1.75-5.53-2.69-10.45-5.48-18.14-11.61-23.21-18.33,3.28-3.98,8.1-7.58,14.56-10.77,7.57-3.75,16.18-6.33,25.71-7.83,12.58,1.79,23.94,4.5,33.94,8.2,14.84,5.47,23.6,11.94,26.74,19.27-3.49,5.44-9.41,10.3-17.91,14.5Zm81.77,7.04c-.9,1.56-1.5,2.6-2.1,3.65l-.02,.03c-7.47-.69-14.47-1.9-20.95-3.67h23.07Zm-41.04,14.49c10.9-5.39,23.76-8.6,38.32-9.77-8,13.99-16.21,27.88-23.9,42.04-1.28,2.37-2.51,4.77-3.66,7.19-5.08-2.86-9.77-6.59-14.04-11.22-4.97-5.38-8.77-11.33-11.45-17.81,3.53-3.82,8.42-7.31,14.74-10.44Z"/></g></g></svg>